<svg xmlns="http://www.w3.org/2000/svg" viewBox="0 0 32 32" fill="currentColor">
    <title>Cat</title>
    <!-- Placeholder silhouette: seated cat, ears + round head + curled tail.
         Solid fill on currentColor so it inherits button/text color in any
         theme. Real art will replace this with the studio cat's likeness.
         Source of truth for the inline <svg> the integration agent drops
         into each #menu-btn (see reveals report) — keep this file and every
         inlined copy byte-for-byte identical if it's ever redrawn. -->
    <polygon points="10.4,7.6 7.6,1.6 13.8,6.4" />
    <polygon points="21.6,7.6 24.4,1.6 18.2,6.4" />
    <circle cx="16" cy="11" r="5.6" />
    <path d="M22,26.5 C27,28.5 30.5,25 29.5,20 C29,17.3 26.5,15.5 24.6,16.8 C26.3,18 27,20.3 26,22.4 C25.2,24.1 23.3,25 21.3,24.3 C20.8,25.3 21.1,26.1 22,26.5 Z" />
    <path d="M9.5,29.5 C9,23 9.8,18 13.2,15.4 C14.6,14.3 17.4,14.3 18.8,15.4 C22.2,18 23,23 22.5,29.5 C22.5,30 21.8,30.4 21,30.4 L11,30.4 C10.2,30.4 9.5,30 9.5,29.5 Z" />
</svg>
